<svg width="92" height="102" viewBox="0 0 92 102" fill="none" xmlns="http://www.w3.org/2000/svg">
<path d="M11.6591 0C11.2191 0 10.7971 0.17321 10.4859 0.481306C10.1748 0.789401 10 1.20714 10 1.64286V21.3571C10 21.7929 10.1748 22.2106 10.4859 22.5187C10.7971 22.8268 11.2191 23 11.6591 23H81.3409C81.7809 23 82.2029 22.8268 82.5141 22.5187C82.8252 22.2106 83 21.7929 83 21.3571V1.64286C83 1.20714 82.8252 0.789401 82.5141 0.481306C82.2029 0.17321 81.7809 0 81.3409 0H11.6591ZM13.3182 3.28571H79.6818V19.7143H13.3182V3.28571Z" fill="#2B4255"/>
<path fill-rule="evenodd" clip-rule="evenodd" d="M56 10V13H75V10H56Z" fill="#2B4255"/>
<path d="M11.6591 29C11.2191 29 10.7971 29.1732 10.4859 29.4813C10.1748 29.7894 10 30.2071 10 30.6429V50.3571C10 50.7929 10.1748 51.2106 10.4859 51.5187C10.7971 51.8268 11.2191 52 11.6591 52H81.3409C81.7809 52 82.2029 51.8268 82.5141 51.5187C82.8252 51.2106 83 50.7929 83 50.3571V30.6429C83 30.2071 82.8252 29.7894 82.5141 29.4813C82.2029 29.1732 81.7809 29 81.3409 29H11.6591ZM13.3182 32.2857H79.6818V48.7143H13.3182V32.2857Z" fill="#2B4255"/>
<path d="M17 36H50V46H17V36Z" fill="#FBB03B"/>
<path fill-rule="evenodd" clip-rule="evenodd" d="M56 40V43H75V40H56Z" fill="#2B4255"/>
<path d="M11.6591 59C11.2191 59 10.7971 59.1807 10.4859 59.5022C10.1748 59.8237 10 60.2596 10 60.7143V81.2857C10 81.7404 10.1748 82.1763 10.4859 82.4978C10.7971 82.8193 11.2191 83 11.6591 83H81.3409C81.7809 83 82.2029 82.8193 82.5141 82.4978C82.8252 82.1763 83 81.7404 83 81.2857V60.7143C83 60.2596 82.8252 59.8237 82.5141 59.5022C82.2029 59.1807 81.7809 59 81.3409 59H11.6591ZM13.3182 62.4286H79.6818V79.5714H13.3182V62.4286Z" fill="#2B4255"/>
<path d="M52 70.5C52 72.2239 51.3679 73.8772 50.2426 75.0962C49.1174 76.3152 47.5913 77 46 77C44.4087 77 42.8826 76.3152 41.7574 75.0962C40.6321 73.8772 40 72.2239 40 70.5C40 68.7761 40.6321 67.1228 41.7574 65.9038C42.8826 64.6848 44.4087 64 46 64C47.5913 64 49.1174 64.6848 50.2426 65.9038C51.3679 67.1228 52 68.7761 52 70.5Z" fill="#FBB03B"/>
<path fill-rule="evenodd" clip-rule="evenodd" d="M17 65.25V75H20.2185V65.25H17ZM23.5045 65.25V75H26.723V65.25H23.5045ZM29.9415 65.25V75H33.1599V65.25H29.9415ZM58.8401 65.25V75H62.0585V65.25H58.8401ZM65.277 65.25V75H68.4955V65.25H65.277ZM71.7815 65.25V75H75V65.25H71.7815ZM44.4246 23V29.5H47.643V23H44.4246ZM44.4246 52.25V58.75H47.643V52.25H44.4246Z" fill="#2B4255"/>
<path d="M40 89H52V102H40V89Z" fill="#E7AA3D"/>
<path fill-rule="evenodd" clip-rule="evenodd" d="M0 93.9618V97H39.4286V93.9618H0ZM52.5714 93.9618V97H92V93.9618H52.5714ZM44.3571 83V89.0763H47.6429V83H44.3571Z" fill="#2B4255"/>
<path d="M17 6H50V17H17V6Z" fill="#FBB03B"/>
</svg>