  <svg width="277" height="256" viewBox="0 0 277 256" fill="none" xmlns="http://www.w3.org/2000/svg">
<path d="M274 3.00012C253.107 59.8753 235.775 68.6356 184.955 103.52C171.136 113.006 104.043 159.472 90.9566 131.189C84.6889 117.643 100.985 113.025 110.954 113.56C130.58 114.612 146.039 117.198 163.842 126.784C191.322 141.581 226.928 169.51 212.882 204.613C206.82 219.762 183.544 223.51 170.066 220.7C156.852 217.945 145.971 211.597 134.153 205.439C124.547 200.434 126.525 200.478 125.943 211.332C124.483 238.574 94.7279 271.004 72.549 239.759C60.1053 222.228 58.7144 202.653 56.4332 182.297C55.5764 174.651 53.6718 161.552 55.9641 154.127C58.46 146.043 65.4533 153.857 65.9101 159.531C67.0457 173.637 63.4548 181.608 50.5091 187.598C38.8011 193.015 19.0553 191.098 12.1528 178.121C8.32317 170.921 7.29056 173.594 7.36139 180.338C7.41635 185.57 10.9743 200.719 8.77727 195.97C8.0032 194.297 1.68819 180.405 2.87617 178.69C7.1054 172.584 14.9674 168.869 20.2365 163.91" stroke="white" stroke-width="5" stroke-linecap="round"/>
</svg>