    <svg width="21" height="21" viewBox="0 0 21 21" fill="none" xmlns="http://www.w3.org/2000/svg">
<path d="M19.5986 17.0704L6.70771 20.836C6.30409 20.9539 5.89852 20.901 5.58023 20.6889C5.26193 20.4767 5.05698 20.1228 5.01046 19.7049C4.96394 19.287 5.07966 18.8394 5.33217 18.4605C5.58467 18.0816 5.95328 17.8025 6.3569 17.6846L15.5777 14.993L0.90148 5.21184C0.583736 5.00007 0.37914 4.64673 0.3327 4.22955C0.28626 3.81237 0.401781 3.36552 0.65385 2.98731C0.905918 2.60909 1.27389 2.33049 1.6768 2.21279C2.07972 2.09509 2.48459 2.14794 2.80233 2.35971L17.4785 12.1409L16.4184 2.59225C16.3718 2.17434 16.4876 1.72672 16.7401 1.34785C16.9926 0.968975 17.3612 0.68989 17.7648 0.571988C18.1684 0.454086 18.574 0.507025 18.8923 0.719158C19.2106 0.931292 19.4155 1.28524 19.462 1.70315L20.9478 15.0503C20.9711 15.2574 20.9547 15.4741 20.8994 15.6879C20.8441 15.9017 20.7511 16.1084 20.6258 16.2961C20.5004 16.4838 20.3451 16.6488 20.1688 16.7817C19.9926 16.9146 19.7988 17.0127 19.5986 17.0704Z" fill="#0003DA"/>
</svg>
