<svg width="140" height="140" viewBox="0 0 140 140" fill="none" xmlns="http://www.w3.org/2000/svg">
<path d="M30.9844 16.8374V26.8508H36.5556V113.634H30.9844V123.647H60.1767V121.978C60.1831 121.659 60.2251 121.341 60.302 121.027C60.4527 120.396 60.7713 119.797 61.2291 119.268H61.2375C61.3544 119.135 61.4755 119.008 61.5966 118.888H61.605C61.8631 118.638 62.1528 118.411 62.4695 118.21H62.4778C62.6156 118.123 62.7743 118.03 62.9581 117.936H62.9665C63.1389 117.848 63.3158 117.766 63.4968 117.689H63.5052C63.8541 117.547 64.2209 117.436 64.5994 117.356H64.6328C64.8197 117.315 65.0094 117.283 65.2008 117.259C65.3803 117.225 65.5516 117.215 65.7145 117.205H66.7293C67.0843 117.249 67.3056 117.272 67.4309 117.292C67.6314 117.326 67.8235 117.356 67.9989 117.402H68.0323C68.4098 117.494 68.7738 117.619 69.1181 117.773H69.1432C69.3144 117.85 69.4898 117.94 69.6569 118.026H69.6652C69.9965 118.199 70.3008 118.403 70.5715 118.634C70.8507 118.87 71.1023 119.126 71.3232 119.398H71.3357C71.5534 119.665 71.7367 119.949 71.8828 120.246C71.9538 120.396 72.0081 120.547 72.0624 120.693H72.0708C72.2156 121.114 72.2859 121.549 72.2796 121.985V123.654H101.981C106.575 123.654 110.334 120.65 110.334 116.978V23.5197C110.334 19.8481 106.575 16.8441 101.981 16.8441H72.2838V18.513C72.2927 18.9979 72.201 19.4806 72.0123 19.9416C71.8928 20.2431 71.7376 20.5348 71.5487 20.8127C71.1532 21.3801 70.6242 21.881 69.991 22.288C69.8354 22.3842 69.6752 22.4755 69.5107 22.5617H69.5023C68.9992 22.8282 68.4448 23.0266 67.8611 23.1492H67.8277C67.6436 23.191 67.4568 23.2244 67.268 23.2493C67.0843 23.2827 66.9172 23.2961 66.7502 23.3061H65.7312C65.3887 23.2627 65.1548 23.2393 65.0379 23.2193H65.0045C64.8249 23.1859 64.6286 23.1559 64.4365 23.1091C64.251 23.0615 64.0685 23.007 63.8894 22.9456H63.8644C63.6868 22.8873 63.5126 22.8227 63.3423 22.752H63.3256C63.1474 22.6744 62.9732 22.5908 62.8036 22.5017C62.6442 22.4135 62.4895 22.3199 62.34 22.2213H62.3233C62.0224 22.0172 61.7468 21.7903 61.5006 21.5437L61.4839 21.5103C61.3627 21.3842 61.2484 21.2539 61.1414 21.1198H61.1331C61.0232 20.9904 60.9215 20.8567 60.8282 20.7193C60.6466 20.4338 60.5024 20.134 60.398 19.8247C60.3418 19.6699 60.2958 19.5128 60.2602 19.3541H60.2686C60.2081 19.0853 60.1774 18.8128 60.1767 18.5397V16.8708H51.8659V16.8374H30.9844ZM35.1607 20.1752H47.6896V120.31H35.1607V116.972H40.7319V23.513H35.1607V20.1752ZM51.8659 20.1752H56.2217C56.3296 20.6156 56.4846 21.0478 56.6853 21.4669H56.6937C56.819 21.724 56.9568 21.9676 57.1113 22.2079H57.1197C57.4269 22.6841 57.7905 23.1357 58.2055 23.5564H58.2264C58.6505 23.9779 59.1231 24.3668 59.638 24.718H59.6463C60.4225 25.2449 61.2959 25.6727 62.2356 25.9863H62.2565C62.8953 26.1925 63.5566 26.3512 64.2319 26.4603C64.6203 26.5237 64.9168 26.5438 65.0964 26.5638C65.5766 26.6239 65.9567 26.6172 66.2281 26.6172H66.9423C67.3014 26.5838 67.6481 26.5604 67.978 26.5171C68.3121 26.4703 68.6462 26.4102 68.9928 26.3301H68.9594C69.2852 26.26 69.6109 26.1733 69.9283 26.0765H69.9617C70.2624 25.983 70.5715 25.8695 70.893 25.736H70.9014C71.4922 25.4873 72.0541 25.1968 72.5803 24.8682H72.6137C72.8726 24.7013 73.1232 24.5277 73.3654 24.3408C73.6035 24.1572 73.8457 23.957 74.0712 23.74H74.0629C74.2842 23.5297 74.4888 23.3194 74.6768 23.1025H74.6851C74.8731 22.8822 75.0443 22.6485 75.2072 22.4115H75.2155C75.691 21.7116 76.0384 20.9607 76.247 20.1819H101.981C104.333 20.1819 106.158 21.6405 106.158 23.5197V38.5332H93.6288V41.871H106.158V45.2088H93.6288V48.5466H106.158V51.8844H93.6288V55.2222H106.158V58.56H93.6288V61.8978H106.158V65.2357H93.6288V68.5735H106.158V71.9113H93.6288V75.2491H106.158V78.5869H93.6288V81.9247H106.158V85.2625H93.6288V88.6003H106.158V91.9381H93.6288V95.2759H106.158V98.6138H93.6288V101.952H106.158V116.978C106.158 118.858 104.333 120.316 101.981 120.316H76.247C76.1393 119.88 75.9842 119.452 75.7835 119.038H75.7751C75.3981 118.286 74.8891 117.582 74.2633 116.945H74.2383C73.8155 116.525 73.3443 116.137 72.8308 115.787H72.8141C72.5579 115.612 72.2902 115.448 72.0123 115.296H72.0039C71.7299 115.148 71.4469 115.011 71.1562 114.886H71.1395C70.8451 114.756 70.5427 114.639 70.2332 114.535H70.2123C69.9073 114.435 69.5965 114.345 69.281 114.268H69.2476C68.9235 114.187 68.5945 114.119 68.262 114.064H68.2369C67.8235 114.001 67.5353 113.988 67.3724 113.964H67.3641C66.8838 113.908 66.5038 113.914 66.2281 113.914H65.5265C65.1715 113.948 64.8249 113.968 64.4908 114.014C64.1472 114.062 63.807 114.124 63.4718 114.201H63.5052C63.1798 114.273 62.8592 114.357 62.5446 114.455H62.5112C62.1938 114.556 61.883 114.669 61.5799 114.795H61.5716C60.9718 115.047 60.4016 115.34 59.8676 115.673H59.8593C59.5982 115.84 59.3474 116.018 59.1076 116.204H59.0992C58.615 116.58 58.1785 116.994 57.7962 117.439H57.7879C57.4043 117.888 57.077 118.367 56.8106 118.868H56.8023C56.6724 119.119 56.5581 119.375 56.4598 119.635H56.4514C56.3608 119.877 56.2841 120.122 56.2217 120.37H51.8659V20.1752ZM97.8051 23.513C96.6974 23.513 95.6352 23.8647 94.852 24.4906C94.0688 25.1166 93.6288 25.9656 93.6288 26.8508C93.6288 27.7361 94.0688 28.5851 94.852 29.211C95.6352 29.837 96.6974 30.1886 97.8051 30.1886C98.9127 30.1886 99.9749 29.837 100.758 29.211C101.541 28.5851 101.981 27.7361 101.981 26.8508C101.981 25.9656 101.541 25.1166 100.758 24.4906C99.9749 23.8647 98.9127 23.513 97.8051 23.513ZM60.2185 33.5265V36.8643H56.0422V46.8777H60.2185V50.2155H64.3947V46.8777H68.571V50.2155H72.7473V46.8777H76.9236V50.2155H81.0999V46.8777H85.2762V36.8643H81.0999V33.5265H76.9236V36.8643H72.7473V33.5265H68.571V36.8643H64.3947V33.5265H60.2185ZM60.2185 40.2021H81.0999V43.5399H60.2185V40.2021ZM60.2185 61.8978V65.2357H56.0422V75.2491H60.2185V78.5869H64.3947V75.2491H68.571V78.5869H72.7473V75.2491H76.9236V78.5869H81.0999V75.2491H85.2762V65.2357H81.0999V61.8978H76.9236V65.2357H72.7473V61.8978H68.571V65.2357H64.3947V61.8978H60.2185ZM60.2185 68.5735H81.0999V71.9113H60.2185V68.5735ZM60.2185 90.2692V93.607H56.0422V103.62H60.2185V106.958H64.3947V103.62H68.571V106.958H72.7473V103.62H76.9236V106.958H81.0999V103.62H85.2762V93.607H81.0999V90.2692H76.9236V93.607H72.7473V90.2692H68.571V93.607H64.3947V90.2692H60.2185ZM60.2185 96.9448H81.0999V100.283H60.2185V96.9448ZM97.8051 110.296C96.6974 110.296 95.6352 110.648 94.852 111.274C94.0688 111.9 93.6288 112.749 93.6288 113.634C93.6288 114.519 94.0688 115.368 94.852 115.994C95.6352 116.62 96.6974 116.972 97.8051 116.972C98.9127 116.972 99.9749 116.62 100.758 115.994C101.541 115.368 101.981 114.519 101.981 113.634C101.981 112.749 101.541 111.9 100.758 111.274C99.9749 110.648 98.9127 110.296 97.8051 110.296Z" fill="url(#paint0_linear_509_947)"/>
<defs>
<linearGradient id="paint0_linear_509_947" x1="30.9844" y1="70.2457" x2="101.981" y2="70.2457" gradientUnits="userSpaceOnUse">
<stop stop-color="#0003DA"/>
<stop offset="0.39" stop-color="#0619ED"/>
<stop offset="1" stop-color="#FBB03B"/>
</linearGradient>
</defs>
</svg>
