   <svg width="103" height="103" viewBox="0 0 103 103" fill="none" xmlns="http://www.w3.org/2000/svg">
<g clip-path="url(#clip0_509_1252)">
<path d="M74.7354 95.0739C74.2324 95.8384 73.4076 96.3011 72.5023 96.3011H51.5H30.4977C29.5924 96.3011 28.7475 95.8384 28.2646 95.0739C27.7818 94.3296 27.7215 93.4042 28.0635 92.5995C29.0895 90.3062 31.3828 88.8376 33.8975 88.8376H38.9268V84.4118H64.0934V88.8376H69.1227C71.6373 88.8376 73.9105 90.3263 74.9566 92.5995C75.2986 93.4042 75.2182 94.3497 74.7354 95.0739ZM33.5354 31.6645C32.1473 36.8347 27.3996 40.6569 21.807 40.6569C15.108 40.6368 9.65625 35.2052 9.65625 28.5062C9.65625 22.8935 13.4785 18.1659 18.6486 16.7778C18.5078 17.321 18.5883 16.9589 18.5682 28.5062C18.5682 30.2765 20.0166 31.7249 21.7869 31.7249C33.2738 31.7048 32.9721 31.7651 33.5354 31.6645Z" fill="#0003DA"/>
<path d="M33.9377 28.5062C33.9377 29.0896 33.4549 29.5724 32.8715 29.5724H21.807C21.2236 29.5724 20.7408 29.0896 20.7408 28.5062V17.4417C20.7408 16.8382 21.2236 16.3755 21.807 16.3755C28.5061 16.3755 33.9377 21.8071 33.9377 28.5062ZM32.8715 47.1548H10.7225C10.1391 47.1548 9.65625 46.672 9.65625 46.0886C9.65625 45.5052 10.1391 45.0224 10.7225 45.0224H32.8715C33.4549 45.0224 33.9377 45.5052 33.9377 46.0886C33.9377 46.672 33.4549 47.1548 32.8715 47.1548ZM32.8715 53.4716H10.7225C10.1391 53.4716 9.65625 52.9888 9.65625 52.4054C9.65625 51.822 10.1391 51.3392 10.7225 51.3392H32.8715C33.4549 51.3392 33.9377 51.822 33.9377 52.4054C33.9377 53.0089 33.4549 53.4716 32.8715 53.4716ZM32.8715 59.8085H10.7225C10.1391 59.8085 9.65625 59.3257 9.65625 58.7423C9.65625 58.1589 10.1391 57.6761 10.7225 57.6761H32.8715C33.4549 57.6761 33.9377 58.1589 33.9377 58.7423C33.9377 59.3257 33.4549 59.8085 32.8715 59.8085ZM53.5922 41.9444V57.656C53.5922 58.8429 52.6266 59.8085 51.4396 59.8085H46.9736C45.7867 59.8085 44.8211 58.8429 44.8211 57.656V41.9444C44.8211 40.7575 45.7666 39.7919 46.9736 39.7919H51.4396C52.6266 39.7919 53.5922 40.7575 53.5922 41.9444ZM66.8494 30.88V57.656C66.8494 58.8429 65.8838 59.8085 64.6969 59.8085H60.2309C59.0439 59.8085 58.0783 58.8429 58.0783 57.656V30.88C58.0783 29.6931 59.0238 28.7274 60.2309 28.7274H64.6969C65.8838 28.7274 66.8494 29.6931 66.8494 30.88ZM80.0865 41.9444V57.656C80.0865 58.8429 79.1209 59.8085 77.934 59.8085H73.4479C72.2609 59.8085 71.2953 58.8429 71.2953 57.656V41.9444C71.2953 40.7575 72.2609 39.7919 73.4479 39.7919H77.934C79.1209 39.7919 80.0865 40.7575 80.0865 41.9444ZM93.3438 35.3862V57.656C93.3438 58.8429 92.3781 59.8085 91.1912 59.8085H86.7051C85.5182 59.8085 84.5525 58.8429 84.5525 57.656V35.3862C84.5525 34.1993 85.5182 33.2337 86.7051 33.2337H91.1912C92.3781 33.2337 93.3438 34.1993 93.3438 35.3862Z" fill="#FBB03B"/>
<path d="M75.701 34.2595C75.3993 34.2595 75.0975 34.1187 74.8762 33.8773L62.3633 18.9906L49.951 30.9804C49.5286 31.3827 48.8446 31.3827 48.4422 30.9603C48.0399 30.5378 48.0399 29.8538 48.4623 29.4515L61.7196 16.657C61.9409 16.4558 62.2225 16.3351 62.5243 16.3552C62.826 16.3753 63.1077 16.5161 63.2887 16.7374L75.9022 31.7449L88.3547 22.9536C88.8375 22.6116 89.5014 22.7324 89.8434 23.2152C90.1854 23.698 90.0647 24.3618 89.5819 24.7038L76.3247 34.0784C76.1436 34.1991 75.9223 34.2595 75.701 34.2595Z" fill="#0003DA"/>
<path d="M51.5 72.261C50.6954 72.261 50.0315 72.9249 50.0315 73.7295C50.0315 74.5342 50.6954 75.1981 51.5 75.1981C52.3047 75.1981 52.9686 74.5342 52.9686 73.7295C52.9686 72.9249 52.3047 72.261 51.5 72.261Z" fill="#0003DA"/>
<path d="M97.6287 6.69897H5.37129C2.39395 6.69897 0 9.09292 0 12.0501C0 13.7601 0 81.0119 0 76.908C0 79.8652 2.39395 82.2793 5.37129 82.2793H97.6488C100.606 82.2793 103.02 79.8652 103.02 76.908C103.02 68.7203 103.02 20.1976 103.02 12.0501C103 9.09292 100.586 6.69897 97.6287 6.69897ZM51.5 77.3505C49.5084 77.3505 47.8789 75.721 47.8789 73.7294C47.8789 71.7378 49.5084 70.1084 51.5 70.1084C53.4916 70.1084 55.1211 71.7378 55.1211 73.7294C55.1211 75.721 53.4916 77.3505 51.5 77.3505ZM98.715 65.1595H4.28496V12.0501C4.28496 11.4667 4.76777 10.9839 5.35117 10.9839H97.6287C98.2121 10.9839 98.6949 11.4667 98.6949 12.0501V65.1595H98.715Z" fill="#2B4255"/>
</g>
<defs>
<clipPath id="clip0_509_1252">
<rect width="103" height="103" fill="white"/>
</clipPath>
</defs>
</svg>